<?xml version="1.0" encoding="utf-8"?>
<!-- Generator: Adobe Illustrator 23.0.1, SVG Export Plug-In . SVG Version: 6.00 Build 0)  -->
<svg version="1.1" id="Layer_1" xmlns="http://www.w3.org/2000/svg" xmlns:xlink="http://www.w3.org/1999/xlink" x="0px" y="0px"
	 viewBox="0 0 328.5 564.8" style="enable-background:new 0 0 328.5 564.8;" xml:space="preserve">
<style type="text/css">
	.st0{fill:#FAC69E;}
	.st1{fill:#FFD4AB;}
	.st2{fill:none;stroke:#000000;stroke-miterlimit:10;}
	.st3{fill:#FEE1CF;}
	.st4{fill:#E2AD8D;}
	.st5{fill:#D15E05;}
	.st6{fill:#D97424;}
	.st7{fill:#AA5002;}
	.st8{fill:#CC5D01;}
	.st9{fill:#D17222;}
	.st10{opacity:0.1;enable-background:new    ;}
	.st11{fill:#B0202C;}
	.st12{fill:#F8A28B;}
	.st13{fill:#FFFFFF;}
	.st14{fill:#E59055;}
	.st15{fill:none;}
	.st16{fill:#333333;}
	.st17{fill:#050505;}
	.st18{fill:none;stroke:#000000;stroke-linecap:round;stroke-linejoin:round;}
	.st19{fill:#FCFAFF;}
	.st20{fill:#021E9B;}
	.st21{fill:#0328CF;}
	.st22{fill:#050200;}
	.st23{fill:#000102;}
	.st24{fill:#F9F9F9;}
	.st25{display:none;}
	.st26{display:inline;fill:#021468;}
	.st27{display:inline;fill:#021E9B;}
	.st28{display:inline;}
	.st29{display:inline;fill:#0328CF;}
	.st30{display:inline;fill:#0837CF;}
	.st31{display:inline;fill:#0E47CF;}
	.st32{display:inline;fill:#1356CF;}
	.st33{display:inline;fill:#1865CF;}
	.st34{display:inline;fill:#1E75CF;}
	.st35{display:inline;fill:#2384CE;}
	.st36{display:inline;fill:#2893CE;}
	.st37{display:inline;fill:#2EA3CE;}
	.st38{display:inline;fill:#33B2CE;}
	.st39{display:inline;fill:url(#SVGID_1_);}
	.st40{display:inline;fill:url(#SVGID_2_);}
</style>
<title>llama</title>
<path class="st0" d="M218.4,64.3c0,0,47.8-17.6,88-50.6c25.5-20.9,36.1,81.5-20.6,106.3"/>
<path class="st1" d="M217.1,65c0,0,47.8-17.6,88-50.6c1.8-1.7,4.1-2.7,6.6-2.8c-16.4,18.5-29.7,33-43.6,40.9
	C239.8,68.6,217.1,65,217.1,65z"/>
<path class="st2" d="M218.4,64.3c0,0,47.8-17.6,88-50.6c25.5-20.9,36.1,81.5-20.6,106.3"/>
<path class="st3" d="M311.5,11.7L311.5,11.7c23.6-3.2,27.4,85.1-25.7,108.3l-9.8-8.1C273.7,83,292.7,22.2,311.5,11.7"/>
<path class="st2" d="M311.5,11.7L311.5,11.7c23.6-3.2,27.4,85.1-25.7,108.3l-9.8-8.1C273.7,83,292.7,22.2,311.5,11.7z"/>
<path class="st4" d="M326.8,33.1c-4.6-0.8-10.1,0.1-16.6,4.3c-26.1,17-32.6,57.4-34.2,74.7l6.5,5.4l3,2.5c5.4-2.4,10.4-5.5,14.9-9.3
	C323.8,90.9,330.4,55.8,326.8,33.1z"/>
<path class="st0" d="M110.1,64.3c0,0-47.8-17.6-88-50.6C-3.4-7.2-14,95.2,42.7,119.9"/>
<path class="st1" d="M111.4,65c0,0-47.8-17.6-88-50.6c-1.8-1.7-4.1-2.7-6.6-2.8c16.4,18.5,29.7,33,43.6,40.9
	C88.7,68.6,111.4,65,111.4,65z"/>
<path class="st2" d="M110.1,64.3c0,0-47.8-17.6-88-50.6C-3.4-7.2-14,95.2,42.7,119.9"/>
<path class="st3" d="M17,11.7L17,11.7C-6.6,8.5-10.4,96.8,42.7,119.9l9.8-8.1C54.8,83,35.8,22.2,17,11.7"/>
<path class="st2" d="M17,11.7L17,11.7C-6.6,8.5-10.4,96.8,42.7,119.9l9.8-8.1C54.8,83,35.8,22.2,17,11.7z"/>
<path class="st4" d="M1.7,33.1c4.6-0.8,10.1,0.1,16.6,4.3c26.1,17,32.6,57.4,34.2,74.7l-6.5,5.4l-3,2.5c-5.4-2.4-10.4-5.5-14.9-9.3
	C4.7,90.9-1.9,55.8,1.7,33.1z"/>
<path class="st5" d="M74.8,74.9c0,0,0.4-28.3,30.2-36.6s97.8-6,119.6,4.3c12.7,5.9,21,18.3,21.5,32.3"/>
<path class="st6" d="M224.3,43.6c-21.8-10.3-89.9-12.6-119.6-4.3S74.6,75.9,74.6,75.9h5.7c1.4-8.6,13.3-20.6,34.2-26.9
	c27.9-8.5,79.3-5.5,99.8,5.1c14.6,7.5,24.8,14.6,25.9,21.8h5.6C245.3,62,237,49.5,224.3,43.6z"/>
<path class="st2" d="M74.8,74.9c0,0,0.4-28.3,30.2-36.6s97.8-6,119.6,4.3c12.7,5.9,21,18.3,21.5,32.3"/>
<path class="st7" d="M48.8,215l-15.5,36.1c0,0,7-8.8,7.8-5.7l-10.3,36.1c0,0,8.1-10.9,7.2-5.5c0,0-19.6,52.1-19,60.8
	c0,0,11-12.2,9.7,0S8.1,397.9,8.1,397.9s18.9-23.8,15.3-14.1s-8.5,28-8.5,28s61.4,58.5,69.6,89c0,0,7-22.8,0-32.5
	c0,0,42.2,40.2,43.7,67.1c0,0,7.1-23.1,5.7-33.5c0,0,28,50.6,26.9,62.9c0,0,8.7-58.4,19.6-64l4.3,31.1c0,0,33.4-47.1,42.2-48.6
	c0,0-3.1,19.1-3.1,23.7c0,0,72.7-79.4,85.6-77.9c0,0-20-40.8-22.6-43.3c0,0,20.8,12.4,26.1,21.7c0,0-15.8-60.7-26.1-70.6
	c0,0,12.3,1,15.4,7.7c0,0-23.4-60.4-27.2-62.4c0,0,11.7,4.6,14.8,10.3c0,0-0.4-30.9-7.2-42.8s-19.6-37-20.1-47.9
	S90.1,141.3,48.8,215"/>
<path class="st8" d="M53.4,220.8L41,255.3c0,0,7.8-3.9,7,1.5c0,0-17.2,46.7-16.8,55.4c0,0,13-15.9,11.9-3.7s-17.4,56.8-17.4,56.8
	s15.6-22.9,12.4-13.2s-14.3,53-14.3,53s44.9,29.5,52.1,60c0,0,8.5-12.3,2.2-22c0,0,44.8,41,46.2,67.8c0,0,5.1-22.3,3.9-32.7
	c0,0,30.8,49,29.8,61.4c0,0,13.9-57.7,23.5-63.4l8.2,25c0,0,31.6-37.1,39.4-38.6c0,0,5.7,14.7,5.7,19.3c0,0,40.1-61.6,51.5-60.1
	c0,0-13.3-51.6-15.6-54.2c0,0,19.8,4.6,24.5,13.9c0,0-22.6-61.7-31.8-71.6c0,0,18.4,6.5,21.1,13.2c0,0-28.8-67.4-32.1-69.4
	c0,0,21.4,8.7,24.2,14.4c0,0-1.5-19.7-4.4-35.8c-5.5-11.3-10.7-23.7-11-30.6c0,0,0,0,0-0.1c-0.1-0.3-0.3-0.6-0.4-0.9
	c-8.6-12.1-162.7-54.7-209,7.8L47.1,224C47.1,224,52.7,217.7,53.4,220.8z"/>
<path class="st9" d="M66.6,220.3c0,0-14.3,46.7-14,55.4c0,0,10.9-15.9,9.9-3.7S48,328.8,48,328.8s13-22.9,10.4-13.2
	s-11.9,53-11.9,53s37.4,29.5,43.4,60c0,0,7-12.3,1.9-22c0,0,37.4,41,38.5,67.8c0,0,4.3-22.3,3.2-32.7c0,0,25.6,49,24.8,61.4
	c0,0,11.6-57.8,19.6-63.4l6.8,25c0,0,26.4-37.1,32.8-38.6c0,0,4.7,14.7,4.7,19.3c0,0,33.4-61.6,42.9-60.1c0,0-11.1-51.6-13-54.2
	c0,0,16.5,4.6,20.4,13.9c0,0-18.9-61.7-26.5-71.6c0,0,15.3,6.5,17.6,13.2c0,0-24-67.4-26.8-69.4c0,0,17.9,8.7,20.1,14.4
	c0,0-1.2-19.4-3.6-35.5c-29.1-13.5-133-37.2-184.8-3.1l-7.8,26C60.8,218.9,67.3,215,66.6,220.3z"/>
<path class="st10" d="M75.6,202.1c0,0-12.8,46.7-12.5,55.4c0,0,9.7-15.9,8.9-3.7s-12.9,56.8-12.9,56.8s11.6-22.9,9.2-13.2
	s-10.6,53-10.6,53s33.3,29.5,38.7,60c0,0,6.3-12.3,1.7-22c0,0,33.3,41,34.3,67.8c0,0,3.8-22.3,2.9-32.7c0,0,22.9,49,22.1,61.4
	c0,0,10.3-57.8,17.4-63.4l6.1,25c0,0,23.5-37.1,29.3-38.6c0,0,4.2,14.7,4.2,19.3c0,0,29.8-61.6,38.3-60.1c0,0-9.9-51.7-11.6-54.2
	c0,0,14.7,4.6,18.2,13.9c0,0-16.8-61.7-23.6-71.6c0,0,13.6,6.5,15.7,13.2c0,0-21.4-67.4-23.9-69.5c0,0,15.9,8.7,18,14.4
	c0,0-1.1-19.4-3.2-35.5c-26-13.5-118.6-37.2-164.8-3.1l-7,26C70.4,200.6,76.2,196.7,75.6,202.1z"/>
<path class="st10" d="M286.6,119.8c-13.5-35.8-40.9-33.7-40.9-33.7s-42.2-18.6-84.6-19.2l0,0H159l0,0c-42.4,0.6-84.6,19.2-84.6,19.2
	s-27.5-2.1-41,33.7s58.3,28.5,69.2,37.1s-48.2,39.5-47.3,59.4s-10.6,108.3,39.4,119c42.1,9,60.5,21.2,65.3,20
	c4.8,1.3,23.2-10.9,65.3-20c50.1-10.7,38.6-99.2,39.4-119s-37.7-38.9-26.9-47.5S300.1,155.6,286.6,119.8"/>
<path class="st2" d="M48.8,215l-15.5,36.1c0,0,7-8.8,7.8-5.7l-10.3,36.1c0,0,8.1-10.9,7.2-5.5c0,0-19.6,52.1-19,60.8
	c0,0,11-12.2,9.7,0S8.1,397.9,8.1,397.9s18.9-23.8,15.3-14.1s-8.5,28-8.5,28s61.4,58.5,69.6,89c0,0,7-22.8,0-32.5
	c0,0,42.2,40.2,43.7,67.1c0,0,7.1-23.1,5.7-33.5c0,0,28,50.6,26.9,62.9c0,0,8.7-58.4,19.6-64l4.3,31.1c0,0,33.4-47.1,42.2-48.6
	c0,0-3.1,19.1-3.1,23.7c0,0,72.7-79.4,85.6-77.9c0,0-20-40.8-22.6-43.3c0,0,20.8,12.4,26.1,21.7c0,0-15.8-60.7-26.1-70.6
	c0,0,12.3,1,15.4,7.7c0,0-23.4-60.4-27.2-62.4c0,0,11.7,4.6,14.8,10.3c0,0-0.4-30.9-7.2-42.8s-19.6-37-20.1-47.9
	S90.1,141.3,48.8,215z"/>
<path class="st8" d="M287,108.6c-13.5-35.8-40.9-33.7-40.9-33.7s-42.1-18.6-84.6-19.2l0,0h-2.1l0,0C117,56.3,74.8,74.9,74.8,74.9
	s-27.4-2.1-40.9,33.7s3,56.3,13.8,64.9s7.2,11.7,8,31.5S45.1,313.3,95.1,324c42.1,9,60.5,5.7,65.3,4.4c4.8,1.3,23.2,4.6,65.3-4.4
	c50.1-10.7,38.6-99.2,39.4-119s-2.8-22.9,8-31.5S300.5,144.4,287,108.6"/>
<path class="st6" d="M258,200.3c1,19.2,9.9,104.9-36.7,115.3c-39.2,8.7-56.3,5.5-60.8,4.3c-4.4,1.2-21.6,4.5-60.8-4.3
	c-46.6-10.4-35.9-96-36.7-115.3c-0.7-18.4-3.9-27.9-27.4-40.5c3.1,5.3,7.2,9.9,12,13.7c10.8,8.6,7.2,11.7,8,31.5
	S45.1,313.3,95.2,324c42.1,9,60.5,5.7,65.3,4.4c4.8,1.3,23.2,4.6,65.3-4.4c50.1-10.7,38.6-99.2,39.4-119s-2.8-22.9,8-31.5
	c6.3-4.9,11.3-11.3,14.6-18.5C275.6,161.3,256.4,168.3,258,200.3z"/>
<path class="st6" d="M33.9,122.5C47.4,89,74.8,91,74.8,91s42.2-17.4,84.6-18l0,0h1.1h1l0,0c42.4,0.6,84.6,18,84.6,18
	s27.4-2,40.9,31.6c2.4,5.7,4,11.8,4.7,17.9c1-8.9,0-19.4-4.7-31.8C273.5,72.8,246,75,246,75s-42.1-18.7-84.5-19.3l0,0h-2.1l0,0
	C117,56.3,74.8,74.9,74.8,74.9s-27.4-2.1-40.9,33.7c-4.7,12.4-5.8,23-4.7,31.8C29.9,134.3,31.5,128.2,33.9,122.5z"/>
<path class="st2" d="M287,108.6c-13.5-35.8-40.9-33.7-40.9-33.7s-42.1-18.6-84.6-19.2l0,0h-2.1l0,0C117,56.3,74.8,74.9,74.8,74.9
	s-27.4-2.1-40.9,33.7s3,56.3,13.8,64.9s7.2,11.7,8,31.5S45.1,313.3,95.1,324c42.1,9,60.5,5.7,65.3,4.4c4.8,1.3,23.2,4.6,65.3-4.4
	c50.1-10.7,38.6-99.2,39.4-119s-2.8-22.9,8-31.5S300.5,144.4,287,108.6z"/>
<path class="st11" d="M203.7,312.9c0,12.2-31.2,29-43,29s-47.2-17.8-47.2-30s35.4-14.1,47.2-14.1S203.7,300.6,203.7,312.9"/>
<path class="st12" d="M157.4,307.3c-10.3,0-35,11.9-42.1,0.3c-1.1,1.2-1.7,2.7-1.7,4.2c0,12.2,35.4,30,47.2,30s43-16.8,43-29
	c0-1.6-0.5-3.1-1.5-4.3C195.9,319.9,167.6,307.3,157.4,307.3z"/>
<path class="st2" d="M203.7,312.9c0,12.2-31.2,29-43,29s-47.2-17.8-47.2-30s35.4-14.1,47.2-14.1S203.7,300.7,203.7,312.9z"/>
<path class="st13" d="M165.9,340h-9.7c-1.1,0-1.9-0.9-1.9-1.9c0,0,0,0,0,0v-11.4c0-1.1,0.8-1.9,1.9-1.9c0,0,0,0,0,0h9.7
	c1.1,0,1.9,0.9,1.9,1.9c0,0,0,0,0,0v11.4C167.7,339.1,166.9,340,165.9,340C165.9,340,165.9,340,165.9,340"/>
<path class="st10" d="M162.7,340h-3.4c-0.4,0-0.7-0.9-0.7-1.9v-11.4c0-1.1,0.3-1.9,0.7-1.9h3.4c0.4,0,0.6,0.9,0.6,1.9v11.4
	C163.3,339.1,163,340,162.7,340"/>
<path class="st2" d="M165.9,340h-9.7c-1.1,0-1.9-0.9-1.9-1.9c0,0,0,0,0,0v-11.4c0-1.1,0.8-1.9,1.9-1.9c0,0,0,0,0,0h9.7
	c1.1,0,1.9,0.9,1.9,1.9c0,0,0,0,0,0v11.4C167.7,339.1,166.9,340,165.9,340z"/>
<path class="st13" d="M151.4,340h-7.5c-1.1,0-1.9-0.9-1.9-1.9c0,0,0,0,0,0v-11.4c0-1.1,0.8-1.9,1.9-1.9c0,0,0,0,0,0h7.5
	c1.1,0,1.9,0.9,1.9,1.9c0,0,0,0,0,0v11.4C153.2,339.1,152.4,340,151.4,340C151.4,340,151.4,340,151.4,340"/>
<path class="st2" d="M151.4,340h-7.5c-1.1,0-1.9-0.9-1.9-1.9c0,0,0,0,0,0v-11.4c0-1.1,0.8-1.9,1.9-1.9c0,0,0,0,0,0h7.5
	c1.1,0,1.9,0.9,1.9,1.9c0,0,0,0,0,0v11.4C153.2,339.1,152.4,340,151.4,340z"/>
<path class="st13" d="M176,339.4h-5.9c-1.1,0-1.9-0.9-1.9-1.9V326c0-1.1,0.8-1.9,1.9-1.9c0,0,0,0,0,0h5.9c1.1,0,1.9,0.9,1.9,1.9
	v11.4C177.9,338.5,177,339.3,176,339.4"/>
<path class="st10" d="M177.2,339.4H175c-0.4,0-0.7-0.9-0.7-1.9V326c0-1.1,0.3-1.9,0.7-1.9h2.2c0.4,0,0.7,0.9,0.7,1.9v11.4
	C177.8,338.5,177.5,339.3,177.2,339.4"/>
<path class="st10" d="M144.8,339.4h-2.1c-0.4,0-0.7-0.9-0.7-1.9V326c0-1.1,0.3-1.9,0.7-1.9h2.1c0.4,0,0.7,0.9,0.7,1.9v11.4
	C145.5,338.5,145.2,339.3,144.8,339.4"/>
<path class="st2" d="M176,339.4h-5.9c-1.1,0-1.9-0.9-1.9-1.9V326c0-1.1,0.8-1.9,1.9-1.9c0,0,0,0,0,0h5.9c1.1,0,1.9,0.9,1.9,1.9v11.4
	C177.9,338.5,177.1,339.3,176,339.4C176,339.4,176,339.4,176,339.4z"/>
<path class="st13" d="M158.3,315.9h-5.9c-1.1,0-1.9-0.9-1.9-1.9c0,0,0,0,0,0v-13.3c0-1.1,0.8-1.9,1.9-1.9c0,0,0,0,0,0h5.9
	c1.1,0,1.9,0.9,1.9,1.9V314C160.2,315.1,159.3,315.9,158.3,315.9"/>
<path class="st2" d="M158.3,315.9h-5.9c-1.1,0-1.9-0.9-1.9-1.9c0,0,0,0,0,0v-13.3c0-1.1,0.8-1.9,1.9-1.9c0,0,0,0,0,0h5.9
	c1.1,0,1.9,0.9,1.9,1.9V314C160.1,315,159.3,315.9,158.3,315.9z"/>
<path class="st13" d="M169,315.9h-5.9c-1,0-1.9-0.9-1.9-1.9c0,0,0,0,0,0v-13.3c0-1,0.8-1.9,1.9-1.9c0,0,0,0,0,0h5.9
	c1.1,0,1.9,0.9,1.9,1.9c0,0,0,0,0,0V314C170.9,315.1,170.1,315.9,169,315.9C169,315.9,169,315.9,169,315.9"/>
<path class="st10" d="M170.1,315.9h-2.6c-0.4,0-0.8-0.9-0.8-1.9v-13.3c0-1.1,0.4-1.9,0.8-1.9h2.6c0.4,0,0.8,0.9,0.8,1.9V314
	C170.9,315.1,170.5,315.9,170.1,315.9"/>
<path class="st10" d="M153.9,315.9h-2.6c-0.4,0-0.8-0.9-0.8-1.9v-13.3c0-1.1,0.4-1.9,0.8-1.9h2.6c0.4,0,0.8,0.9,0.8,1.9V314
	C154.7,315.1,154.3,315.9,153.9,315.9"/>
<path class="st2" d="M169,315.9h-5.9c-1,0-1.9-0.9-1.9-1.9c0,0,0,0,0,0v-13.3c0-1,0.8-1.9,1.9-1.9c0,0,0,0,0,0h5.9
	c1.1,0,1.9,0.9,1.9,1.9c0,0,0,0,0,0V314C170.9,315,170,315.9,169,315.9z"/>
<path class="st14" d="M209.2,304.3c-4.8,1.5-13.2,34.3-49.7,34.3c-28.8,0-48.5-31-54-35.9C126.5,356.4,195.9,357.5,209.2,304.3"/>
<path class="st2" d="M209.2,304.3c-4.8,1.5-13.2,34.3-49.7,34.3c-28.8,0-48.5-31-54-35.9C126.5,356.5,196,357.5,209.2,304.3z"/>
<path class="st0" d="M233.3,278.4c-4.3-24.4-12.2-48.2-19.1-74.9c-17.6,8.7-33.7,16.3-49.2,24.7c-1.8,1-7.1,1-8.9,0
	c-15.6-8.5-31.7-16-49.2-24.7c-6.9,26.7-18.9,50.1-19.1,74.9c-0.2,16.6,4.6,35.5,38,38.3c20.9,1.8,32.7-11,34.8-16.5
	c2.1,5.5,8.8,16.7,34.3,16C224.6,315.3,236.6,297,233.3,278.4"/>
<path class="st10" d="M231.6,269.9c-4.6,11.3-16.6,20-36.9,20.5c-25.5,0.7-32.2-10.5-34.3-16c-2.1,5.5-13.9,18.3-34.8,16.5
	c-25-2.1-34-13.3-36.8-25.8c-0.7,4.3-1.1,8.7-1.2,13.1c-0.2,16.6,4.6,35.5,38,38.3c20.9,1.8,32.7-11,34.8-16.5
	c2.1,5.5,8.8,16.7,34.3,16c29.8-0.8,41.8-19.2,38.5-37.8C232.8,275.5,232.2,272.7,231.6,269.9z"/>
<path class="st10" d="M156.2,243.2c1.9,1,7.8,1,9.7,0c16.3-8.1,34-15.9,52.2-24.1c-0.8-2.9-1.6-5.6-2.3-8.5
	c-17.6,8.7-34.6,16.5-50.2,25c-1.8,1-7.1,1-8.9,0c-15.6-8.5-33.8-16.4-51.4-25.1c-0.8,3-1.7,5.6-2.6,8.5
	C120.8,227.1,139.9,235.1,156.2,243.2z"/>
<path class="st2" d="M233.3,278.4c-4.3-24.4-12.2-48.2-19.1-74.9c-17.6,8.7-33.7,16.3-49.2,24.7c-1.8,1-7.1,1-8.9,0
	c-15.6-8.5-31.7-16-49.2-24.7c-6.9,26.7-18.9,50.1-19.1,74.9c-0.2,16.6,4.6,35.5,38,38.3c20.9,1.8,32.7-11,34.8-16.5
	c2.1,5.5,8.8,16.7,34.3,16C224.6,315.3,236.6,296.9,233.3,278.4z"/>
<line class="st15" x1="160.5" y1="300.2" x2="160.5" y2="228.4"/>
<line class="st2" x1="160.5" y1="300.2" x2="160.5" y2="228.4"/>
<path class="st0" d="M159,69.7c-9.9,0.4-17.1,7.3-20.4,16.3c-5.4,15.1-9.7,30.4-13,46.1c-4,18.1-4.3,37.6-21.3,50.1
	c-1.6,1.2-2.6,3.3-3.7,5c-8.3,13.1-4.3,23.7,10.1,29.9c14.7,6.3,29.2,13.1,43.5,20.5c5,2.6,8.3,2.1,12.9-0.4
	c12.6-6.6,25.3-13.4,38.5-18.4c20.8-7.9,24.6-19.8,10.6-37.1c-1.2-1.7-2.6-3.3-4.2-4.6c-8.5-6-11.2-15-12.9-24.5
	c-1.4-7.6-2-15.4-4.1-22.8c-4.3-15.6-8.6-31.4-14.5-46.5C177.4,75.1,170,69.7,159,69.7"/>
<path class="st10" d="M216.3,181.7c-1.2-1.7-2.6-3.3-4.2-4.6c-8.5-6-11.2-15-12.9-24.5c-1.4-7.6-2-15.4-4.1-22.8
	c-4.3-15.6-8.6-31.4-14.5-46.5c-2.9-7.4-9.3-12.6-18.7-13.4c3.5,2.4,6.2,5.8,7.7,9.7c5.9,15.1,10.1,30.9,14.5,46.5
	c2.1,7.4,2.7,15.2,4.1,22.8c1.7,9.5,4.4,18.5,12.9,24.5c1.6,1.3,3,2.9,4.2,4.6c14,17.3,10.2,29.2-10.6,37.1
	c-13.3,5.1-25.9,11.8-38.5,18.4c-1.8,1-3.8,1.7-5.9,2c1.3,0.7,2.7,1.3,4,2c5,2.6,8.3,2.1,12.9-0.4c12.6-6.6,25.3-13.4,38.5-18.4
	C226.4,210.8,230.3,199,216.3,181.7z"/>
<path class="st2" d="M159,69.7c-9.9,0.4-17.1,7.3-20.4,16.3c-5.4,15.1-9.7,30.4-13,46.1c-4,18.1-4.3,37.6-21.3,50.1
	c-1.6,1.2-2.6,3.3-3.7,5c-8.3,13.1-4.3,23.7,10.1,29.9c14.7,6.3,29.2,13.1,43.5,20.5c5,2.6,8.3,2.1,12.9-0.4
	c12.6-6.6,25.3-13.4,38.5-18.4c20.8-7.9,24.6-19.8,10.6-37.1c-1.2-1.7-2.6-3.3-4.2-4.6c-8.5-6-11.2-15-12.9-24.5
	c-1.4-7.6-2-15.4-4.1-22.8c-4.3-15.6-8.6-31.4-14.5-46.5C177.4,75.1,170,69.7,159,69.7z"/>
<path class="st16" d="M109.3,205.7c3.5-7.5,8.8-6.1,20.7,5.3L109.3,205.7"/>
<path class="st10" d="M190.7,211.1c10.4-12.1,16.4-15.3,20.9-5.6C208.6,199.1,198,208.5,190.7,211.1"/>
<path class="st10" d="M130.2,211.1c-10.4-12.1-16.4-15.3-20.9-5.6C112.3,199.1,122.9,208.5,130.2,211.1"/>
<path class="st17" d="M112.2,206.4L130,211c-5.4-5.2-9.4-8.2-12.6-9.2C115.2,201.9,113.5,203.4,112.2,206.4z"/>
<path class="st16" d="M190.7,211.1c11.3-11.2,16.6-12.8,20.9-5.6L190.7,211.1"/>
<path class="st8" d="M86.9,37l-5.1,17.1c0,0,3.5-5.8,5.1-2.2c1.3,3.4,2.3,6.8,3.1,10.3c0,0,0-11.6,4.1-8.1c0,0,10.8,16.4,20.6,18.5
	c0,0-4.7-23,4.9-16.9s13.7,19.3,13.7,19.3s10.1-12.7,7.1-17.9c0,0,14.8,1.2,8.3,15.8c0,0,11.5-9.4,12.8-17.2
	c0,0,30.7,11.4,19.1,27.6c0,0,13.8-10.6,10.1-21c0,0,26.9,4.3,20.9,21c0,0,5.9-22.8-6-27.5c0,0,11.9-2.2,16,9.6c0,0,7.2-9.8,0-15.5
	c0,0,4.4-11.4,12.4-1c0,0-3.4-15.1-9.4-15.6c0,0,9.4-7.8,13.5,0c0,0-12.9-23.7-33.5-12.3c0,0-8.3-8.7-18.1-10c0,0,9.8,12.1,1,12.1
	s-8.8-12-32-12.4s-35.9,5.2-35.9,5.2s15.3-3.1,14.7,1c0,0-16.6,4.6-25.1,3.1s-22.3,6.2-22.3,6.2s12.9-0.5,12.9,2.1
	s-18.6-1.7-22.2,5.1C77.7,33.3,86.9,28.7,86.9,37"/>
<path class="st9" d="M204.6,21c0,0-8.3-8.7-18.1-10c0,0,9.8,12.1,1,12.1s-8.8-12-32-12.4s-35.9,5.2-35.9,5.2s15.3-3.1,14.8,1
	c0,0-16.7,4.6-25.1,3.1S87,26.2,87,26.2s12.9-0.5,12.9,2.1s-18.6-1.7-22.2,5.1c0,0,9.2-4.6,9.3,3.7l-2,6.6c1.7-2.9,4.7-6.2,4.5-8.4
	c-0.2-2.4-3.1-3.9-2.6-4c3.1-0.5,14.3,1.3,15.4,0.2c2.6-2.6,0.3-6.1-3.6-6.8s6.3-3.1,13.5-0.6c4.7,1.6,29-4,30.1-5.6s-4.8-4-6.3-4.5
	s14.8-1.8,27.4,2c10.6,3.2,16,10.7,19.4,11.8s13-1.5,13.4-3.4s-2.6-8.2-3.5-8.9s7.2,5.2,11.8,9.4c2.1,2,9.3-1.9,12-2
	c4.7-0.1,11.8,4.6,8.4,3.7s-7.5,2.7-7.8,5.5s5.4,2.8,9.3,5.5c2.1,1.5,4.5,5.4,6.6,7.8c-1.4-4.5-4.3-11.6-8.4-11.9
	c0,0,8.8-7.3,13.1-0.7C235.4,28.8,223.1,10.8,204.6,21z"/>
<path class="st9" d="M237.8,32.6L237.8,32.6L237.8,32.6z"/>
<path class="st9" d="M237.8,32.7c0.1,0.2,0.3,0.4,0.4,0.6C238.2,33.3,238,33.1,237.8,32.7z"/>
<path class="st7" d="M212.6,78.6c-0.4,2.7-0.9,4.5-0.9,4.5C212.3,81.6,212.6,80.1,212.6,78.6z"/>
<path class="st7" d="M218.4,40.7c-2.7,2.1-0.1,5.2,0.2,10.3s1.9,5.8-18.2-1.8c-0.4-0.1-1,2.2-0.6,4.2c0.5,2.5,1.3,4.8,2.3,7.1
	c-1.1-2.5-13.1-7-14.3-7s-2.4,13-3.5,9.2C182,53.8,163.3,45,160.2,45c-3.3,0-6.6,16.7-7.3,10.7s-19.6-8.3-17.6-6.5
	s-2.1,17.3-1.4,11.7s-13.1-13.5-19.2-13.5c-3.6,0-8.9,5.2-7.8,10.9C108.1,64.9,95.3,46,93.4,46s-4.8,7.2-4.1,4.8
	c0.3-0.9-1.5-1-2.5-3.2c-0.7-1.6-0.7-4.2-1.4-5.5L82,53.9c0,0,3.5-5.8,5.1-2.2c1.3,3.4,2.3,6.8,3.1,10.3c0,0,0-11.6,4.1-8.1
	c0,0,10.8,16.4,20.6,18.5c0,0-4.7-23,4.9-16.9s13.7,19.3,13.7,19.3s10.1-12.8,7.1-17.9c0,0,14.8,1.2,8.3,15.8
	c0,0,11.5-9.4,12.8-17.2c0,0,30.7,11.4,19.1,27.6c0,0,13.8-10.7,10.1-21c0,0,22,3.5,21.8,16.5c1-6.9,1.7-19.6-6.9-23.1
	c0,0,11.9-2.2,16,9.7c0,0,7.2-9.8,0-15.5c0,0,4.4-11.4,12.4-1c-0.5-2.1-1.1-4.2-1.9-6.2C227.4,39.8,220.6,39.1,218.4,40.7z"/>
<path class="st2" d="M86.9,37l-5.1,17.1c0,0,3.5-5.8,5.1-2.2c1.3,3.4,2.3,6.8,3.1,10.3c0,0,0-11.6,4.1-8.1c0,0,10.8,16.4,20.6,18.5
	c0,0-4.7-23,4.9-16.9s13.7,19.3,13.7,19.3s10.1-12.7,7.1-17.9c0,0,14.8,1.2,8.3,15.8c0,0,11.5-9.4,12.8-17.2
	c0,0,30.7,11.4,19.1,27.6c0,0,13.8-10.6,10.1-21c0,0,26.9,4.3,20.9,21c0,0,5.9-22.8-6-27.5c0,0,11.9-2.2,16,9.6c0,0,7.2-9.8,0-15.5
	c0,0,4.4-11.4,12.4-1c0,0-3.4-15.1-9.4-15.6c0,0,9.4-7.8,13.5,0c0,0-12.9-23.7-33.5-12.3c0,0-8.3-8.7-18.1-10c0,0,9.8,12.1,1,12.1
	s-8.8-12-32-12.4s-35.9,5.2-35.9,5.2s15.3-3.1,14.7,1c0,0-16.6,4.6-25.1,3.1s-22.3,6.2-22.3,6.2s12.9-0.5,12.9,2.1
	s-18.6-1.7-22.2,5.1C77.7,33.3,86.9,28.7,86.9,37z"/>
<path class="st7" d="M0.6,124.8c0,0,25.4-60.3,63.6-31.6C64.2,93.3,36.8,30.3,0.6,124.8"/>
<path class="st8" d="M4.9,116.4c-1.6,2.7-3,5.6-4.3,8.4c36.2-94.5,63.6-31.6,63.6-31.6c-0.6-0.5-1.2-0.9-1.8-1.3
	C52.8,81.1,30,64.7,4.9,116.4z"/>
<path class="st18" d="M0.6,124.8c0,0,25.4-60.3,63.6-31.6C64.2,93.3,36.8,30.4,0.6,124.8z"/>
<path class="st7" d="M316.3,132.9c0,0-17.2-63.1-58.9-39.7C257.5,93.2,292.9,34.4,316.3,132.9"/>
<path class="st8" d="M313.2,123.9c1.2,2.9,2.2,5.9,3.1,8.9c-23.4-98.5-58.9-39.7-58.9-39.7c0.7-0.4,1.3-0.7,2-1.1
	C270.3,82.6,295.1,69.4,313.2,123.9z"/>
<path class="st18" d="M316.3,132.9c0,0-17.2-63.1-58.9-39.7C257.5,93.2,292.9,34.4,316.3,132.9z"/>
<path class="st10" d="M55.5,123.1c15.5,0,26.7,13.5,28.8,23.2c1.3,5.4,0.1,11.1-3.3,15.5c-5.1,6.9-15.1,11.3-25.5,11.3
	c-15.6,0-28.3-13.6-28.3-30.3C27.2,125.4,40.8,123.1,55.5,123.1z"/>
<path class="st19" d="M80.3,144.9C83.8,160.3,67,170,51.2,170c-15.8,0-28.6-12.8-28.6-28.6c0-15.8,12.8-18.4,28.6-18.4
	S78.2,135.7,80.3,144.9"/>
<path class="st20" d="M51.2,164.1c9,0,18.4-3.4,24.1-9.3c-0.1-0.8-0.2-1.7-0.3-2.5c-1.7-10.1-10.8-23.9-23.7-23.9s-23.3,2.8-23.3,20
	c-0.1,1-0.1,2.1,0.1,3.1C31.2,160.3,41.7,164.1,51.2,164.1z"/>
<path class="st21" d="M51.2,162.1c8.4,0,17.6-2.7,22.9-7.9c-0.1-0.7-0.6-2.8-0.7-3.5c-1.6-8.9-10.1-21-22.1-21s-21.7,2.5-21.7,17.7
	c-0.1,1.6,0,3.3,0.2,4.9C32.7,159.9,42.3,162.1,51.2,162.1z"/>
<path class="st22" d="M51.2,170.6c-16.1,0-29.2-13.1-29.2-29.2c0-16.7,14-19,29.2-19c16,0,27.5,13,29.7,22.4
	c1.3,5.2,0,10.8-3.4,14.9C72.2,166.4,61.9,170.6,51.2,170.6z M51.2,123.6c-16.8,0-28,3-28,17.8c0,15.5,12.5,28,28,28
	c10.3,0,20.3-4.1,25.3-10.4c3.2-3.9,4.4-9,3.2-13.9C77.6,136.1,66.6,123.7,51.2,123.6L51.2,123.6z"/>
<path class="st10" d="M79.9,145.1c-1.7-7.6-9.6-17.4-21-20.7c8.8,4.3,14.8,13.4,16.2,20.6c2.2,11.3-4.5,19.7-13.7,23.7
	C73.1,165.5,82.6,157,79.9,145.1z"/>
<path class="st20" d="M59.7,147.8c0,3.7-4,6.7-9,6.7s-9-3-9-6.7s4-6.7,9-6.7S59.7,144.1,59.7,147.8z"/>
<path class="st23" d="M58.9,147.8c0,3.4-3.7,6.1-8.2,6.1s-8.1-2.7-8.1-6.1s3.7-6.1,8.2-6.1S58.9,144.4,58.9,147.8z"/>
<ellipse class="st24" cx="56.9" cy="145.3" rx="3.8" ry="2.8"/>
<path class="st10" d="M265.1,124.3c-15.6,0-26.7,13.5-28.8,23.2c-1.3,5.4-0.1,11.1,3.3,15.6c5.1,6.8,15.1,11.3,25.5,11.3
	c15.6,0,28.3-13.6,28.3-30.3C293.4,126.6,279.8,124.3,265.1,124.3z"/>
<path class="st19" d="M240.3,146.1c-3.5,15.4,13.3,25.1,29.1,25.1c15.8,0,28.6-12.8,28.6-28.6c0-15.8-12.8-18.4-28.6-18.4
	S242.4,136.9,240.3,146.1"/>
<path class="st20" d="M269.4,165.3c-9,0-18.4-3.4-24.1-9.3c0.1-0.8,0.2-1.6,0.3-2.5c1.7-10.1,10.8-23.9,23.7-23.9s23.3,2.8,23.3,20
	c0.1,1,0.1,2.1-0.1,3.1C289.4,161.5,278.9,165.3,269.4,165.3z"/>
<path class="st21" d="M269.4,163.3c-8.4,0-17.6-2.7-22.9-8c0.1-0.7,0.5-2.8,0.7-3.5c1.6-8.9,10.1-21,22.1-21s21.7,2.5,21.7,17.7
	c0.1,1.6,0,3.3-0.2,4.9C287.9,161.1,278.3,163.3,269.4,163.3z"/>
<path class="st22" d="M243.1,161c-3.4-4.2-4.7-9.7-3.4-15c2.1-9.4,13.6-22.3,29.7-22.3c15.2,0,29.2,2.3,29.2,19
	c0,16.1-13.1,29.2-29.2,29.2C258.7,171.8,248.4,167.6,243.1,161z M240.9,146.3c-1.2,4.9,0,10,3.2,13.9c5.1,6.3,15,10.4,25.3,10.4
	c15.5,0,28-12.5,28-28c0-14.7-11.2-17.8-28-17.8C254,124.9,243,137.3,240.9,146.3L240.9,146.3z"/>
<path class="st10" d="M240.7,146.3c1.7-7.6,9.6-17.4,21-20.7c-8.9,4.3-14.8,13.4-16.2,20.6c-2.2,11.3,4.5,19.7,13.8,23.8
	C247.5,166.7,238,158.2,240.7,146.3z"/>
<path class="st20" d="M260.9,149c0,3.7,4,6.7,9,6.7s9-3,9-6.7s-4-6.7-9-6.7S260.9,145.3,260.9,149z"/>
<path class="st23" d="M261.7,149c0,3.4,3.6,6.1,8.1,6.1s8.1-2.8,8.1-6.1s-3.6-6.1-8.1-6.1S261.7,145.6,261.7,149z"/>
<ellipse class="st24" cx="263.7" cy="146.5" rx="3.8" ry="2.8"/>
<path class="st17" d="M208.4,206.3c-5.9,1.5-11.5,3.2-17.7,4.8c5.4-5.2,9.4-8.4,12.4-9.5C205.4,201.7,207.1,203.3,208.4,206.3z"/>
<g id="VR_Glasses" class="st25">
	<path class="st26" d="M297.6,109.9l-135.3-6.4l-0.1-2.5l-0.1,2.5L25,114.3l15.8-30.9c2.1-3,4.4-5.8,7.1-8.4
		c9-8.7,18.7-11.9,24-13.6c7.7-2.5,15.7-3.6,23.8-3.3l64.1-1.3h4.9h64.5c8.1-0.3,16.1,0.8,23.8,3.2c5.3,1.7,15,4.9,24,13.6
		c2.6,2.6,5,5.4,7.1,8.5L297.6,109.9z"/>
	<path class="st27" d="M256.1,83c-2.9-0.2-5.8-0.4-8.6-0.8l-10.1-1.3c-50.6-6.3-101.7-6.2-152.3,0.3l-7.6,1c-3,0.4-6.1,0.7-9.1,0.9
		c-26.2,1.6-46.7,23.4-46.7,49.6v17.2c0,26.5,20.7,41.6,46.8,43.1c3,0.2,5.9,0.5,8.9,0.8l8.9,1.1c50.6,6.4,101.7,6.4,152.3,0
		l8.9-1.1c2.9-0.4,5.9-0.7,8.9-0.8c26.1-1.5,46.8-16.6,46.8-43.1v-17.2C303.1,106.2,282.4,84.4,256.1,83z M300.2,149.5
		c0,25.9-20.3,40.6-45.9,42c-2.9,0.2-5.8,0.5-8.7,0.8l-8.7,1.1c-49.5,6.2-99.6,6.2-149.2,0l-8.7-1.1c-2.9-0.4-5.8-0.6-8.7-0.8
		c-25.6-1.5-45.9-16.1-45.9-42v-16.6c0-25.7,20-47,45.7-48.6c3-0.2,6-0.5,8.9-0.8l7.5-1c49.5-6.3,99.6-6.4,149.2-0.2l9.9,1.2
		c2.8,0.3,5.6,0.6,8.5,0.8c25.8,1.4,46,22.8,46,48.6L300.2,149.5z"/>
	<path class="st28" d="M245.6,192.4l-8.7,1.1c-49.5,6.2-99.6,6.2-149.2,0l-8.7-1.1c-2.9-0.4-5.8-0.6-8.7-0.8
		c-25.6-1.5-45.9-16.1-45.9-42v-16.6c0-25.7,20-47,45.7-48.6c3-0.2,6-0.5,8.9-0.8l7.5-1c49.5-6.3,99.6-6.4,149.2-0.2l9.9,1.2
		c2.8,0.3,5.6,0.6,8.5,0.8c25.8,1.4,46,22.8,46,48.6v16.6c0,25.9-20.3,40.6-45.9,42C251.4,191.7,248.5,192,245.6,192.4z"/>
	<path class="st29" d="M244,191.1l-8.6,1.1c-48.6,6.1-97.8,6.1-146.4,0l-8.6-1.1c-2.8-0.4-5.7-0.6-8.5-0.8
		c-25.1-1.4-45-15.7-45-41.1v-16c0-25.3,19.7-46.2,44.9-47.7c2.9-0.2,5.8-0.5,8.8-0.8l7.4-0.9c48.6-6.2,97.8-6.3,146.4-0.2l9.7,1.2
		c2.8,0.3,5.5,0.6,8.3,0.8c25.3,1.4,45.1,22.3,45.1,47.7v16c0,25.4-19.9,39.7-45,41.1C249.7,190.5,246.9,190.8,244,191.1z"/>
	<path class="st30" d="M68.8,92.2c3-0.2,6.1-1.2,9.1-0.6c0.3,0.1,7.2-0.7,7.6-0.7c24.5-4.7,50.2-3.8,75.8-3.9s51,6.7,75.9,4.4
		c0.5,0,9.6,0.9,10.1,1c1.4,0.2,2.8,0.3,4.3,0.3c1.3,0.5,2.5-0.3,3.7,0c21.8,5.2,39.9,20.8,39.8,43.8c0,0.1-0.1,14.4-0.1,14.5
		c-0.3,23.1-18.3,36-40.8,37.7c-2.9,0.2-5.8,0.5-8.7,0.9l-8.7,1.1c-13.1,1.5-26.2,2.8-39.4,3.6c-36.7,2-73.5,0.8-110-3.6l-8.7-1.1
		c-2.9-0.4-5.8-0.7-8.7-0.9c-9.7-0.7-18.5-3.6-25.5-8.4C35,174,29,164.1,28.8,150.8c-0.1-0.1-0.1-14.5-0.1-14.6
		c-1-8.2,2.2-16,6.1-22.7c1.8-3.1,4-5.9,6.6-8.4c1.7-1.6,3.5-3.1,5.4-4.3C53,96.2,60.6,92.6,68.8,92.2z"/>
	<path class="st31" d="M65.8,99c3.1-0.1,6.3-0.9,9.4-0.4c0.7,0.1,7.1-0.4,7.9-0.6c25.2-3.8,51.7-2.9,78.4-3.1s53.1,6.5,78.6,4.4
		c1-0.1,9.5,0.6,10.5,0.8c1.5,0.2,2.9,0.2,4.4,0.2c1.1,0.8,2.3-1.2,3.3-0.3c19.5,2.3,34.7,19.4,34.4,40c-0.1,0.2-0.2,12.9-0.3,13.1
		c-0.5,20.7-16.6,32.4-36.7,34.2c-3,0.2-5.9,0.6-8.9,0.9c-0.7,0.1-8.1,1-8.9,1.1c-13.3,1.6-26.7,2.8-40.2,3.6
		c-37.5,2.1-75,0.8-112.3-3.6l-8.9-1.1c-3-0.4-5.9-0.7-8.9-0.9c-8.2-0.7-16-3.5-22.8-8.1c-8.8-6.1-14.1-16.1-14.2-26.8
		c-0.1-0.2-0.3-12.9-0.3-13.3c-1-7.4,1.9-14.4,5.2-20.6c1.6-2.8,3.5-5.4,5.8-7.7c1.5-1.4,3.2-2.7,5-3.7
		C51.8,103.2,58.5,99.2,65.8,99z"/>
	<path class="st32" d="M62.7,105.7c3.2,0.1,6.5-0.7,9.7-0.2c2.7,0,5.4-0.1,8.1-0.3c25.9-3,53.2-2,81.1-2.3s55.2,6.3,81.3,4.4
		c1.5-0.1,9.4,0.4,10.8,0.5s3,0.1,4.6,0.1c1,1.2,2-1.9,2.8-0.6c16.6,2.8,29.5,18,29,36.1c-0.1,0.3-0.3,11.3-0.5,11.6
		c-0.8,18.3-15,28.7-32.5,30.8c-3,0.3-6,0.6-9.1,1l-9.1,1.1c-13.5,1.6-27.1,2.9-41,3.6c-38.2,2.1-76.5,0.9-114.5-3.6l-9.1-1.1
		c-3-0.4-6-0.7-9.1-1c-7.3-0.8-14.2-3.5-20.1-7.8c-7.8-5.5-12.6-14.4-12.9-24c-0.2-0.3-0.4-11.4-0.4-11.9
		c-0.9-6.6,1.6-12.9,4.4-18.6c1.4-2.9,2.7-4.1,5.1-6.9c1.1-1.3,3.1-2.2,4.5-3.1C50.6,110.2,56.4,105.5,62.7,105.7z"/>
	<path class="st33" d="M59.6,112.4c3.3,0.2,6.7-0.4,10,0c2.8,0.1,5.6,0,8.4-0.2c26.6-2.1,54.7-1.1,83.8-1.5s57.3,6.1,84,4.3
		c1.9-0.1,9.3,0.2,11.2,0.3c1.6,0.1,3.1,0,4.7-0.1c0.9,1.5,1.7-2.6,2.3-0.8c13.8,3.2,24.3,16.6,23.6,32.3c-0.2,0.4-0.4,9.7-0.6,10.1
		c-1,15.9-13.4,25.1-28.3,27.3c-3.1,0.3-6.1,0.6-9.2,1c-1.5,0.2-7.7,1-9.3,1.1c-13.7,1.6-27.6,2.9-41.9,3.7
		c-39,2.1-78,0.9-116.8-3.7l-9.3-1.1c-3.1-0.4-6.2-0.7-9.2-1c-6.3-1-12.3-3.6-17.4-7.5c-6.3-4.9-10.9-11.6-11.7-21.2
		c-0.2-0.4-0.5-9.8-0.6-10.5c-0.8-5.7,1.2-11.3,3.5-16.5c1.2-2.7,2.1-3.2,4.3-6.1c0.9-1.1,2.9-1.7,4-2.5
		C49.4,117.2,54.3,112.1,59.6,112.4z"/>
	<path class="st34" d="M56.6,119.2c3.4,0.3,6.9,0.1,10.4,0.2c1.8,0.1,6.8,0.1,8.7,0c27.2-1.2,56.1-0.2,86.5-0.7s59.4,5.8,86.6,4.3
		c2.4-0.1,9.2,0.2,11.5,0.1c1.6-0.1,3.2-0.1,4.8-0.2c0.8,1.8,1.4-3.3,1.9-1.2c10.9,3.7,19.1,15.2,18.3,28.4
		c-0.3,0.5-0.5,8.1-0.8,8.6c-1.3,13.5-11.7,21.4-24.2,23.9c-3.1,0.3-6.2,0.7-9.4,1.1c-1.9,0.2-7.5,0.9-9.4,1.1
		c-13.9,1.6-28.1,2.9-42.7,3.7c-39.7,2.1-79.5,0.9-119-3.7c-1.9-0.2-7.6-0.9-9.4-1.1c-3.2-0.4-6.3-0.8-9.4-1.1
		c-5.4-1.2-10.4-3.6-14.7-7.1c-5.3-4.4-9.5-10.1-10.4-18.4c-0.3-0.6-0.6-8.3-0.7-9.1c-0.7-4.9,0.9-9.8,2.7-14.4
		c1-2.6,1.5-2.4,3.6-5.3c0.7-0.9,2.7-1.3,3.6-1.9C48.2,124.2,52.3,118.8,56.6,119.2z"/>
	<path class="st35" d="M53.5,125.9c3.5,0.4,7.1,0.2,10.7,0.4c2.2,0.1,6.8,0.1,8.9,0.2c27.8,1.3,57.6,0.7,89.1,0s61.5,5.6,89.3,4.3
		c2.9-0.1,9.1,0.1,11.9-0.2c1.7-0.1,3.3-0.2,5-0.3c0.6,2.2,1.1-4,1.4-1.4c8.1,4.2,15.7,14.2,12.9,24.6c-0.2,0.7-0.6,6.6-0.9,7.1
		c-1.6,11.1-10.1,17.7-20,20.4c-3.2,0.4-6.4,0.7-9.6,1.2c-2.2,0.3-7.3,0.9-9.6,1.2c-14.1,1.6-28.6,2.9-43.5,3.7
		c-40.4,2.2-81,0.9-121.3-3.7c-2.3-0.3-7.4-0.9-9.6-1.2c-3.2-0.4-6.4-0.8-9.6-1.1c-4.5-1.3-8.6-3.7-12-6.8
		c-4.3-3.9-6.9-8.8-9.1-15.6c-0.2-0.7-0.7-6.8-0.9-7.7c-0.7-4.1,0.5-8.2,1.8-12.3c0.7-2.4,1.5-1.2,2.8-4.5c0.6-0.6,2.4-0.9,3.1-1.3
		C47,131.1,50.2,125.5,53.5,125.9z"/>
	<path class="st36" d="M50.4,132.6c3.6,0.4,7.3,0.4,11,0.6c2.5,0.2,6.7,0.3,9.2,0.4c28.4,1.6,59.1,1.6,91.8,0.8s63.6,5.4,91.9,4.3
		c3.4-0.1,8.9-0.1,12.3-0.4c1.7-0.1,3.4-0.3,5.1-0.4c0.5,2.5,0.9-4.7,0.9-1.7c5.2,4.6,9.9,12.7,7.5,20.7c-0.2,0.8-0.8,4.9-1.1,5.6
		c-3.2,8.3-8.5,14.1-15.8,17l-9.7,1.2c-2.6,0.3-7.1,0.9-9.8,1.2c-14.3,1.6-29.1,2.9-44.3,3.7c-41.2,2.2-82.5,0.9-123.5-3.8
		c-2.7-0.3-7.2-0.9-9.8-1.2l-9.8-1.2c-3.5-1.5-6.7-3.7-9.3-6.5c-3.5-3.6-6.2-8-7.8-12.8c-0.3-0.8-0.8-5.2-1-6.3
		c-0.6-3.3,0.2-6.7,0.9-10.2c0.5-2.3,1-0.4,2.1-3.7c0.4-0.4,2.2-0.4,2.7-0.7C45.8,138.1,48.1,132.3,50.4,132.6z"/>
	<path class="st37" d="M47.4,139.4c3.7,0.5,7.5,0.6,11.3,0.9c2.9,0.2,6.6,0.4,9.5,0.6c29,1.9,60.6,2.5,94.5,1.6
		c34-0.8,65.7,4.8,94.6,4.2c3.9-0.1,8.8-0.2,12.6-0.6c1.8-0.2,3.5-0.4,5.3-0.6c0.4,2.9,0.6-5.4,0.5-2c2.4,5.1,4.1,11.2,2.1,16.8
		c-0.3,0.9-0.9,3.4-1.3,4.1c-2.5,5.6-6.5,10.3-11.7,13.5c-3.3,0.4-6.6,0.9-9.9,1.3c-3,0.4-6.9,0.9-10,1.2
		c-14.5,1.6-29.5,2.9-45.1,3.8c-42,2.2-84,1-125.8-3.8c-3-0.3-7-0.8-10-1.2c-3.3-0.4-6.7-0.8-9.9-1.3c-2.5-1.7-4.7-3.8-6.6-6.2
		c-2.3-2.9-4.7-5.6-6.5-10c-0.5-1.6-0.9-3.2-1.1-4.9c-0.4-2.7-0.4-5.5,0.1-8.2c0.2-2.1,0.5,0.5,1.3-2.9c0.2-0.2,2,0,2.2-0.1
		C44.7,145.1,46,139.2,47.4,139.4z"/>
	<path class="st38" d="M43.2,152.1c0.4,0.1,0.8-6.1,1.2-6.1c39.4,3.9,78.9,5.4,118.5,4.3c42.7-1.1,81.5,7.8,115.7,2.6
		c0.3,3.2,0.3-6.1,0-2.3c-1.3,14.7-7.6,19.3-12.1,25.7c-20.7,2.9-42.8,5.1-66.1,6.3c-49.5,2.6-99.1,0.5-148.2-6.3
		c-1.4-1.9-2.7-3.8-3.9-5.8c-2.3-3.9-7-5.6-7.3-16.8c-0.1-2,0,1.4,0.6-2.1L43.2,152.1z"/>
	
		<linearGradient id="SVGID_1_" gradientUnits="userSpaceOnUse" x1="127.23" y1="515.3352" x2="197.33" y2="515.3352" gradientTransform="matrix(1 0 0 -1 0 566)">
		<stop  offset="0.2" style="stop-color:#021468"/>
		<stop  offset="0.36" style="stop-color:#021468;stop-opacity:0.7"/>
		<stop  offset="0.53" style="stop-color:#021468"/>
		<stop  offset="0.82" style="stop-color:#021468;stop-opacity:0.7"/>
		<stop  offset="0.99" style="stop-color:#021468"/>
	</linearGradient>
	<path class="st39" d="M192.4,41h-60.1c-2.8,0-5,2.2-5,5v10.6c0,2.1,1.7,3.8,3.8,3.8l0,0h3c-1.3,0-2.4-1.1-2.4-2.4v0v-7.6
		c0-2.7,2.2-4.9,4.9-4.9h51.8c2.7,0,4.9,2.2,4.9,4.9v7.6c0,1.3-1.1,2.4-2.4,2.4h3c2.1,0,3.8-1.7,3.8-3.8v0V46
		C197.4,43.2,195.2,41,192.4,41C192.4,41,192.4,41,192.4,41z"/>
	
		<linearGradient id="SVGID_2_" gradientUnits="userSpaceOnUse" x1="162.2995" y1="508.44" x2="162.2995" y2="566" gradientTransform="matrix(1 0 0 -1 0 566)">
		<stop  offset="0.18" style="stop-color:#0328CF"/>
		<stop  offset="0.36" style="stop-color:#0E47CF"/>
		<stop  offset="0.53" style="stop-color:#0328CF"/>
		<stop  offset="0.78" style="stop-color:#1356CF"/>
		<stop  offset="0.93" style="stop-color:#0328CF"/>
	</linearGradient>
	<path class="st40" d="M138.9,0h45.6c2.2,0,4.1,1.7,4.4,3.9l6.7,45.3c0.5,4.1-2.5,7.8-6.6,8.3c-0.3,0-0.6,0.1-0.9,0.1h-51.5
		c-4.1,0-7.5-3.4-7.5-7.5c0-0.2,0-0.5,0-0.7L134.5,4C134.7,1.7,136.6,0,138.9,0z"/>
</g>
</svg>
